<?xml version="1.0" standalone="no"?>
<!DOCTYPE svg PUBLIC "-//W3C//DTD SVG 20010904//EN"
 "http://www.w3.org/TR/2001/REC-SVG-20010904/DTD/svg10.dtd">
<svg version="1.0" xmlns="http://www.w3.org/2000/svg"
 width="600.000000pt" height="600.000000pt" viewBox="0 0 600.000000 600.000000"
 preserveAspectRatio="xMidYMid meet">
<metadata>
Created by potrace 1.11, written by Peter Selinger 2001-2013
</metadata>
<g transform="translate(0.000000,600.000000) scale(0.100000,-0.100000)"
fill="#000000" stroke="none">
<path d="M0 3000 l0 -3000 3000 0 3000 0 0 3000 0 3000 -3000 0 -3000 0 0
-3000z m607 1290 l73 0 0 -1030 0 -1030 305 0 305 0 0 -270 0 -270 -575 0
-575 0 0 1307 0 1306 197 -6 c108 -4 229 -7 270 -7z m1382 -917 l0 -918 -148
-380 -147 -380 -122 -3 -122 -3 0 1301 0 1300 270 0 270 0 -1 -917z m1708 292
c133 -341 267 -685 299 -765 293 -748 464 -1189 464 -1201 0 -6 -105 -8 -286
-7 l-286 3 -45 115 c-24 63 -64 168 -90 233 l-45 117 -547 0 -547 0 -93 -235
-92 -235 -289 0 -290 0 9 23 c26 64 328 839 646 1655 l360 922 295 -2 295 -3
242 -620z m863 238 c123 -214 258 -447 300 -518 41 -72 156 -271 255 -442
l180 -312 3 830 2 829 270 0 270 0 0 -1300 0 -1300 -312 0 -313 0 -42 73 c-23
39 -235 410 -473 822 -237 413 -435 754 -441 760 -5 5 -9 -124 -9 -345 l-1
-355 -58 145 c-32 80 -102 258 -156 395 -54 138 -147 374 -207 525 l-108 275
0 152 0 153 308 0 308 0 224 -387z"/>
<path d="M3150 3536 c0 -2 -66 -172 -146 -377 -80 -206 -154 -395 -164 -421
l-18 -48 340 0 c268 0 339 3 335 13 -3 6 -79 198 -168 425 -90 226 -167 412
-171 412 -5 0 -8 -2 -8 -4z"/>
</g>
</svg>
